<svg id="Layer_1" data-name="Layer 1" xmlns="http://www.w3.org/2000/svg" viewBox="0 0 479.79 422.55"><defs><style>.cls-1{fill:#fff;}</style></defs><title>MyFace</title><path class="cls-1" d="M259.34,347.46a21.19,21.19,0,0,0-12.1-5.38h-.6a21.19,21.19,0,0,0-12.1,5.38c-5.61,5.26-11.86,15.42-20.49,15.59,0,0,12.46,33.62,32.57,34.32h.64c20.11-.7,32.57-34.32,32.57-34.32C271.2,362.88,265,352.72,259.34,347.46Z" transform="translate(-8.46 -68.78)"/><path class="cls-1" d="M249,298.51s3.08,18.89,21.09,19.77,31.63,2.85,35.58,15.37c0,0,3.29-24.82-17.35-26.36s-23.28-16.69-23.28-16.69S252.54,290.82,249,298.51Z" transform="translate(-8.46 -68.78)"/><path class="cls-1" d="M246.36,298.51s-3.08,18.89-21.09,19.77-31.62,2.85-35.58,15.37c0,0-3.29-24.82,17.35-26.36s23.29-16.69,23.29-16.69S242.85,290.82,246.36,298.51Z" transform="translate(-8.46 -68.78)"/><path class="cls-1" d="M273.12,202.3s4.87-7.85,8.12-9.48,32-12.46,37.38-10.56,20.85,9.75,21.12,16.25c0,0-11.37-6-16.79-5.15s-29.25,1.36-47.12,10.84Z" transform="translate(-8.46 -68.78)"/><path class="cls-1" d="M226,203.13s-4.87-7.85-8.12-9.48-32-12.45-37.38-10.56-20.85,9.75-21.12,16.25c0,0,11.37-6,16.79-5.14s29.25,1.35,47.13,10.83Z" transform="translate(-8.46 -68.78)"/><path class="cls-1" d="M360.36,205.76c-21.94-3.61-50.79-3.15-50.79-3.15h0A150,150,0,0,0,288.83,204c-4.75.67-10.25,1.45-15.42,3.43-2.85,1-10.72,3.52-13.66,3.52-3.61,0-4.14-.14-11.23-.14h0c-7.09,0-7.62.14-11.24.14-2.93,0-10.8-2.56-13.65-3.52-5.17-2-10.67-2.76-15.42-3.43a150,150,0,0,0-20.74-1.42h0s-28.85-.46-50.79,3.15l-.14,15.12s8.68,4,11.34,16.84c.14,1.46.34,3,.64,4.63,0,.29,0,.57.06.87l.07-.15a36.34,36.34,0,0,0,3.11,9.39c4.11,8.09,9.38,12.39,18.2,14.82a73.29,73.29,0,0,0,19.64,2.82c1.05,0,2.11,0,3.14-.08l2.59-.12c5.87-.26,12.53-.55,18.5-2.51,9.34-3.06,14.55-9.71,18.15-16.88l0,.2a181.65,181.65,0,0,0,7.63-17.66,17.43,17.43,0,0,1,1.17-2.63c.45-.7,7.48-11.16,15.6,0h0a16.91,16.91,0,0,1,1.15,2.59,181.65,181.65,0,0,0,7.63,17.66l-.05-.2c3.6,7.17,8.81,13.82,18.15,16.88,6,2,12.63,2.25,18.5,2.51l2.59.12c1,.05,2.09.08,3.14.08a73.29,73.29,0,0,0,19.64-2.82c8.82-2.43,14.09-6.73,18.2-14.82a36.34,36.34,0,0,0,3.11-9.39l.07.15c0-.3,0-.58.06-.87.3-1.61.5-3.17.64-4.63,2.66-12.86,11.34-16.84,11.34-16.84ZM147.55,217.08l-3.22,3.21-3.21-3.21h1.7v-3.86h-1.7l3.21-3.21,3.22,3.21H145.8v3.86ZM231,241.14c-3.74,9.66-8.11,18.43-18.63,21.88-6.19,2-13.43,2.08-19.89,2.41-1,.05-1.94.07-2.91.07a69,69,0,0,1-18.42-2.66c-7.51-2.06-11.76-5.43-15.33-12.46-2.82-5.57-3.77-13.26-3.65-19.46s.72-14.35,6.08-18.43c5-3.83,12.09-4.47,18.16-4.89q5.51-.39,11-.39a145.25,145.25,0,0,1,20.1,1.37c7.17,1,15.08,2.14,20.94,6.78C237,222.11,234.41,232.4,231,241.14Zm110.16,9.24c-3.57,7-7.82,10.4-15.33,12.46a69,69,0,0,1-18.42,2.66c-1,0-1.94,0-2.91-.07-6.46-.33-13.7-.38-19.89-2.41-10.52-3.45-14.89-12.22-18.63-21.88-3.39-8.74-6-19,2.52-25.78,5.86-4.64,13.77-5.77,20.94-6.78a145.25,145.25,0,0,1,20.1-1.37q5.52,0,11,.39c6.07.42,13.13,1.06,18.16,4.89,5.36,4.08,5.95,12.21,6.07,18.43S344,244.81,341.19,250.38Zm14.73-33.3-3.21,3.21-3.22-3.21h1.75v-3.86h-1.75l3.22-3.21,3.21,3.21h-1.71v3.86Z" transform="translate(-8.46 -68.78)"/><path class="cls-1" d="M187.62,85.34c-55.78,14.38-51.45,86.79-51.45,86.79a18,18,0,0,1,2.7-7.22c.49,9.84-1.47,27.65,3,38.55,4.38-.57,8.91-1,13.35-1.35-1-15-1.17-32.3,5.81-44.42a5.11,5.11,0,0,0-4.06,2.11c3.17-7,7.45-13.93,13.08-19.26-4.57,2.51-10.6,5.93-13.65,10.28,4-6.44,9.08-16.94,15.91-20.66l-5-.45c4.95-1.43,4.57-2.59,11.73-2.26-1.59-3.19-1.54-6.82-3.61-9.93,2.51,2.14,6.79,1.4,8.57,5,.67-4,4-6.85,3.42-11.24,19.58,24.83,38.5,28.68,69.66,27.89,14.4-.36,48.37-2.17,48.73-21.48,6.88,14.53,26.25,9.36,30.73,27.39-3.08-4.62-5.18.16-8.12,0,13.4,8.12,16.16,35.73,17,57.35,2.78.25,5.58.53,8.32.87,2.93-12.16,3-24.38,5.37-38.81a10.77,10.77,0,0,1,4.06,4.06c3.66-18.31-1.26-40.19-22.57-42.88,1.47-12.75.13-27.58-9.47-37a29.36,29.36,0,0,1,6.32,17.6c-10.67-27.59-43.32-29.2-66.8-37.46,5.77,9.16,21.91,31.56,16.25,42.87-3.44-11.9-4.58-24.11-15.18-30.88,7.93,10.71,10.13,26.62,6.6,40.36-3.38-11.35-8.29-22-10.08-33.61-.92,4.06-3.27,10.28-2.84,14.6-5.66-6.9-13.41-16.81-21.57-20.7,8.29,10.61,19.06,25.77,20,39.71-10.65-15.42-17.26-27.62-34-36.85,10.91,12.3,5.85,22.16,15,35.48-14.45-14-13.77-13.5-27-32.45.43,14.81,10.21,27.26,20.69,39-10.65-9.63-29-23.12-33.19-36.95,1.13,11,12.22,25.58,20.54,33.9-13.65-8.34-26.42-19-30.1-34,.84,19.75,7.25,29.33,23.35,40.87C219.2,130.16,189.58,120.42,187.62,85.34Z" transform="translate(-8.46 -68.78)"/><path class="cls-1" d="M38.22,476.35l4-38.4h6.33l-6.4,52.65H35.32l-6.76-39.67L21.73,490.6H14.86L8.46,438h6.36l4,38.4L25.6,438h5.82Z" transform="translate(-8.46 -68.78)"/><path class="cls-1" d="M63.24,457.3a15.13,15.13,0,0,1,5.17-4.79,14.21,14.21,0,0,1,6.91-1.76,16.76,16.76,0,0,1,5.59.89,10.61,10.61,0,0,1,4.28,2.77,12.6,12.6,0,0,1,2.73,4.75,21.62,21.62,0,0,1,1,6.82V490.6H82.19V465.9q0-4.8-2.3-7.16a8.69,8.69,0,0,0-6.56-2.31A11.11,11.11,0,0,0,67.49,458a12.59,12.59,0,0,0-4.25,4.18V490.6H56.55V435.06h6.69Z" transform="translate(-8.46 -68.78)"/><path class="cls-1" d="M99.11,470.68a24.45,24.45,0,0,1,1.23-7.87,19,19,0,0,1,3.53-6.31,16.35,16.35,0,0,1,5.59-4.21,17.2,17.2,0,0,1,7.41-1.54,17.48,17.48,0,0,1,7.47,1.54,16.39,16.39,0,0,1,5.6,4.21,19,19,0,0,1,3.53,6.31,24.45,24.45,0,0,1,1.23,7.87v.79a24.24,24.24,0,0,1-1.23,7.85,18.86,18.86,0,0,1-3.53,6.29,16.2,16.2,0,0,1-5.59,4.2,17.5,17.5,0,0,1-7.41,1.52,17.77,17.77,0,0,1-7.47-1.52,16.23,16.23,0,0,1-5.6-4.2,18.86,18.86,0,0,1-3.53-6.29,24.24,24.24,0,0,1-1.23-7.85Zm6.69.79a21.63,21.63,0,0,0,.69,5.52,14.28,14.28,0,0,0,2.08,4.61,10.29,10.29,0,0,0,3.49,3.14,9.84,9.84,0,0,0,4.88,1.16,9.7,9.7,0,0,0,4.83-1.16,10.42,10.42,0,0,0,3.47-3.14,14.28,14.28,0,0,0,2.08-4.61,21.63,21.63,0,0,0,.69-5.52v-.79a21,21,0,0,0-.71-5.48,14.53,14.53,0,0,0-2.1-4.61,10.52,10.52,0,0,0-3.47-3.17,10.66,10.66,0,0,0-9.71,0,10.65,10.65,0,0,0-3.45,3.17,14.28,14.28,0,0,0-2.08,4.61,21.43,21.43,0,0,0-.69,5.48Z" transform="translate(-8.46 -68.78)"/><path class="cls-1" d="M189.88,438H221.7v5.82H209.08v41.05H221.7v5.78H189.88v-5.78h12.33V443.77H189.88Z" transform="translate(-8.46 -68.78)"/><path class="cls-1" d="M260.32,480.22a4.88,4.88,0,0,0-.47-2.15,4.72,4.72,0,0,0-1.59-1.75,12.81,12.81,0,0,0-3-1.47,32.4,32.4,0,0,0-4.59-1.21,45.56,45.56,0,0,1-6.13-1.66,20.25,20.25,0,0,1-4.73-2.33,10.17,10.17,0,0,1-3.06-3.19,8.16,8.16,0,0,1-1.09-4.24,9.25,9.25,0,0,1,1.13-4.47,11.15,11.15,0,0,1,3.14-3.63,15.69,15.69,0,0,1,4.83-2.46,19.78,19.78,0,0,1,6.17-.91,21.11,21.11,0,0,1,6.5.94,15,15,0,0,1,4.92,2.61,11.72,11.72,0,0,1,3.13,3.88,10.61,10.61,0,0,1,1.1,4.8h-6.69a5.11,5.11,0,0,0-.65-2.48,6.82,6.82,0,0,0-1.81-2.15,9,9,0,0,0-2.8-1.52,11,11,0,0,0-3.7-.58,13.58,13.58,0,0,0-3.75.47,8.49,8.49,0,0,0-2.67,1.26,5.5,5.5,0,0,0-1.61,1.85,4.78,4.78,0,0,0-.11,4.23,4.25,4.25,0,0,0,1.5,1.63,11.5,11.5,0,0,0,2.86,1.3,39.37,39.37,0,0,0,4.53,1.12,54.49,54.49,0,0,1,6.48,1.75,19.27,19.27,0,0,1,4.81,2.39,10,10,0,0,1,3,3.24,8.56,8.56,0,0,1,1,4.26,9.68,9.68,0,0,1-1.17,4.74,11.16,11.16,0,0,1-3.28,3.65,15.64,15.64,0,0,1-5,2.35,23.21,23.21,0,0,1-6.4.84,21.79,21.79,0,0,1-7.09-1.07,16.76,16.76,0,0,1-5.26-2.82,12.13,12.13,0,0,1-3.29-4.07,10.76,10.76,0,0,1-1.14-4.81h6.69a6.86,6.86,0,0,0,1.1,3.47,7.65,7.65,0,0,0,2.39,2.28,9.82,9.82,0,0,0,3.16,1.23,16.9,16.9,0,0,0,3.44.36,12.5,12.5,0,0,0,6.69-1.55A4.8,4.8,0,0,0,260.32,480.22Z" transform="translate(-8.46 -68.78)"/><path class="cls-1" d="M335.83,466.16,330,472.81V490.6h-6.84V438H330v25.71l5.1-6.36L350.51,438h8.13l-18.4,23,19.63,29.61h-8.13Z" transform="translate(-8.46 -68.78)"/><path class="cls-1" d="M384.93,491.33a19.85,19.85,0,0,1-7.57-1.41,17.1,17.1,0,0,1-5.91-3.95,18,18,0,0,1-3.84-6,20.45,20.45,0,0,1-1.37-7.56v-1.52a22.2,22.2,0,0,1,1.52-8.47,19.24,19.24,0,0,1,4-6.33,17.37,17.37,0,0,1,5.71-4,16.45,16.45,0,0,1,6.57-1.38,17.37,17.37,0,0,1,7.39,1.47,14.38,14.38,0,0,1,5.26,4,17.24,17.24,0,0,1,3.13,6.09,26.73,26.73,0,0,1,1,7.59v3H372.93a15.12,15.12,0,0,0,1,5,13,13,0,0,0,2.53,4.11,11.61,11.61,0,0,0,3.85,2.76,11.85,11.85,0,0,0,5,1,13.54,13.54,0,0,0,11-5.28l4.09,3.18a16,16,0,0,1-2.45,2.84,16.78,16.78,0,0,1-3.38,2.4,18.86,18.86,0,0,1-4.34,1.68A20.87,20.87,0,0,1,384.93,491.33Zm-.86-35.08a10.14,10.14,0,0,0-3.84.74,10,10,0,0,0-3.25,2.17,12.13,12.13,0,0,0-2.44,3.51,16.21,16.21,0,0,0-1.39,4.79h21V467a15,15,0,0,0-.74-3.87,10.76,10.76,0,0,0-1.86-3.43,9.41,9.41,0,0,0-3.09-2.46A9.71,9.71,0,0,0,384.07,456.25Z" transform="translate(-8.46 -68.78)"/><path class="cls-1" d="M418.09,451.48l.47,5.78a15.55,15.55,0,0,1,5.25-4.75,14.39,14.39,0,0,1,6.94-1.76,17,17,0,0,1,5.59.87,10.69,10.69,0,0,1,4.28,2.71,12.34,12.34,0,0,1,2.73,4.69,21.1,21.1,0,0,1,1,6.74V490.6h-6.69V465.9a14.51,14.51,0,0,0-.58-4.41,7.11,7.11,0,0,0-1.71-2.93,6.7,6.7,0,0,0-2.79-1.62,12.81,12.81,0,0,0-3.78-.51,10.5,10.5,0,0,0-5.91,1.68,12.39,12.39,0,0,0-4.07,4.43V490.6h-6.69V451.48Z" transform="translate(-8.46 -68.78)"/><path class="cls-1" d="M468.72,475.78c0-1.74.1-3.17.22-4.29a10,10,0,0,1,.76-3,9.51,9.51,0,0,1,1.66-2.53c.72-.81,1.69-1.77,2.89-2.88l2.52-2.6a28.1,28.1,0,0,0,2.35-2.8,15.8,15.8,0,0,0,1.75-3.09,8.73,8.73,0,0,0,.69-3.44,7.74,7.74,0,0,0-2.28-6q-2.28-2.08-6.51-2.08a13.06,13.06,0,0,0-3.31.42,8.58,8.58,0,0,0-2.86,1.3,6.73,6.73,0,0,0-2,2.24,6.47,6.47,0,0,0-.76,3.24h-6.69a12.13,12.13,0,0,1,1.26-5.46,12.52,12.52,0,0,1,3.31-4.11,15,15,0,0,1,4.92-2.57,20.5,20.5,0,0,1,6.13-.88,21.55,21.55,0,0,1,6.53.92,13.33,13.33,0,0,1,4.86,2.69,11.7,11.7,0,0,1,3,4.31,14.93,14.93,0,0,1,1.05,5.78,13.09,13.09,0,0,1-.91,4.9,21.27,21.27,0,0,1-2.31,4.34,27.59,27.59,0,0,1-3.17,3.82c-1.16,1.18-2.32,2.28-3.45,3.29a11.31,11.31,0,0,0-1.68,2,7.66,7.66,0,0,0-.89,1.91,9.82,9.82,0,0,0-.36,2.08c-.05.74-.07,1.58-.07,2.52ZM468,487.09a4.18,4.18,0,0,1,1-2.89,3.94,3.94,0,0,1,3.09-1.16,4,4,0,0,1,3.13,1.16,4.12,4.12,0,0,1,1.07,2.89,3.91,3.91,0,0,1-1.07,2.79,4.1,4.1,0,0,1-3.13,1.12,3.72,3.72,0,0,1-4.12-3.91Z" transform="translate(-8.46 -68.78)"/><path class="cls-1" d="M246.36,298.51" transform="translate(-8.46 -68.78)"/></svg>